<svg width="146" height="32" viewBox="0 0 146 32" fill="none" xmlns="http://www.w3.org/2000/svg">
<path d="M33.1494 26.2059L35.8773 6.70876C37.397 6.55746 39.5157 6.48181 42.2333 6.48181C44.6155 6.48181 46.2653 6.86006 47.1826 7.61312C48.0999 8.36619 48.4216 9.72445 48.1375 11.681C47.9322 13.0943 47.5283 14.15 46.9293 14.8446C46.3303 15.5426 45.437 15.9484 44.2561 16.0584L44.2288 16.1994C46.8163 16.4057 47.8671 18.1594 47.3777 21.4571C47.0765 23.4171 46.4398 24.7341 45.4644 25.4115C44.4889 26.0889 42.8768 26.4294 40.6281 26.4294C37.3491 26.4328 34.8574 26.3572 33.1494 26.2059ZM36.2162 24.0051L40.2105 24.0326C41.7473 24.0326 42.8255 23.8126 43.445 23.369C44.0645 22.9254 44.4684 22.0554 44.6532 20.7556C44.8414 19.363 44.6943 18.4242 44.2185 17.9428C43.7393 17.4614 42.7433 17.2138 41.2236 17.1932H37.1745L36.2162 24.0051ZM37.4826 15.0165H41.3639C42.7125 15.0165 43.6846 14.7896 44.2767 14.3391C44.8688 13.8886 45.2556 13.0393 45.4438 11.7945C45.6115 10.6082 45.4609 9.82761 44.992 9.44936C44.5231 9.07455 43.5579 8.88542 42.0964 8.88542H38.328L37.4826 15.0165Z" fill="#6841F2"/>
<path d="M60.3773 12.4169H63.2181C62.205 16.9009 60.8838 20.6971 59.2512 23.8057C57.7897 26.5944 56.3384 28.5716 54.9043 29.7408C53.4702 30.9099 51.7588 31.663 49.7702 32L49.2637 30.0502C50.465 29.7683 51.5124 29.3453 52.4126 28.778C53.3128 28.214 54.1753 27.3544 55.0002 26.2058H53.7337C53.3025 26.2058 52.9363 26.0889 52.6385 25.8517C52.3373 25.6178 52.149 25.2912 52.0771 24.8751L49.4348 12.4135H52.3065L54.3875 23.5753C54.4423 23.8951 54.6305 24.0567 54.9488 24.0567H56.3282C56.4035 23.926 56.5061 23.73 56.6362 23.479C56.7663 23.2245 56.8518 23.0595 56.8895 22.9838C58.5392 19.5383 59.703 16.0171 60.3773 12.4169Z" fill="#6841F2"/>
<path d="M68.8139 14.5351L67.7152 22.2789C67.6228 22.9391 67.6809 23.3861 67.8966 23.62C68.1122 23.8572 68.5469 23.9741 69.2041 23.9741H71.2577L71.3706 26.0923C70.5458 26.3365 69.4779 26.4603 68.1635 26.4603C66.9451 26.4603 66.0688 26.1199 65.5349 25.4424C65.001 24.765 64.8161 23.7953 64.9873 22.5334L66.1133 14.5351H63.6113L63.8646 12.5579L66.4248 12.4169L67.0169 8.37646H69.6901L69.1288 12.4169H73.349L73.0683 14.5351H68.8139Z" fill="#6841F2"/>
<path d="M84.6515 23.9191L84.8192 25.7554C83.4877 26.2815 81.6018 26.5462 79.1649 26.5462C76.8203 26.5462 75.1979 25.9307 74.2977 24.6963C73.3976 23.4618 73.1169 21.5465 73.4523 18.9468C73.8083 16.2922 74.5339 14.4766 75.6326 13.5069C76.7279 12.5372 78.5351 12.0524 81.0473 12.0524C83.1865 12.0524 84.6378 12.4306 85.4079 13.1837C86.178 13.9367 86.4587 15.0474 86.2533 16.5192C86.0274 17.8568 85.5037 18.8231 84.6789 19.4145C83.854 20.0094 82.5876 20.3704 80.8831 20.5011L76.1289 20.9241C76.1084 22.2239 76.3822 23.1042 76.9435 23.5649C77.5048 24.0257 78.3879 24.2561 79.5858 24.2561C80.8625 24.2561 82.5499 24.1461 84.6515 23.9191ZM76.2966 18.8884L80.8831 18.4654C81.7456 18.4104 82.3754 18.2247 82.769 17.9153C83.1626 17.6058 83.4159 17.0625 83.5288 16.2888C83.6418 15.405 83.4946 14.8583 83.0941 14.6485C82.6903 14.4422 81.8722 14.3391 80.6332 14.3391C79.2093 14.3391 78.1996 14.6348 77.6109 15.2297C77.0154 15.8211 76.5773 17.0418 76.2966 18.8884Z" fill="#6841F2"/>
<path d="M92.5543 6.42676L91.7945 12.1349C91.6268 13.3797 91.3803 14.4319 91.062 15.2985C91.9622 14.3941 92.9514 13.6307 94.0295 13.0083C95.1077 12.3859 96.1071 12.0764 97.0244 12.0764C98.1128 12.0764 98.948 12.2793 99.5264 12.6851C100.108 13.0908 100.519 13.8439 100.765 14.9443C101.008 16.0446 100.971 17.5576 100.652 19.4798C100.447 21.0238 100.156 22.2823 99.7797 23.252C99.4032 24.2217 98.9172 24.9438 98.3182 25.4149C97.7192 25.886 97.11 26.1955 96.4905 26.3468C95.8709 26.4981 95.0735 26.5738 94.1014 26.5738C91.815 26.5738 89.5081 26.2333 87.1807 25.5559L89.8538 6.42676H92.5543ZM91.0073 17.4476L90.0797 24.2286C91.4283 24.2836 92.4311 24.3146 93.0883 24.3146C94.8681 24.3146 96.0421 24.0292 96.6034 23.4515C97.1647 22.8772 97.596 21.488 97.8972 19.2838C98.1608 17.231 98.1881 15.9105 97.9828 15.326C97.7774 14.7414 97.2435 14.4491 96.3809 14.4491C95.0495 14.4525 93.2594 15.4498 91.0073 17.4476Z" fill="#6841F2"/>
<path d="M114.214 26.2059H112.074L112.187 23.6613C110.538 25.5835 108.57 26.5428 106.28 26.5428C104.609 26.5428 103.487 25.9961 102.905 24.9026C102.323 23.8091 102.22 21.8869 102.597 19.1394C102.802 17.6127 103.093 16.3645 103.47 15.3948C103.846 14.4251 104.342 13.703 104.962 13.2319C105.581 12.7608 106.218 12.4444 106.875 12.2862C107.532 12.1281 108.374 12.0455 109.408 12.0455C111.64 12.0455 113.882 12.2897 116.13 12.7814L114.214 26.2059ZM112.16 21.2336L113.146 14.3941C111.421 14.3563 110.455 14.3391 110.25 14.3391C109.275 14.3391 108.535 14.3872 108.029 14.4801C107.522 14.5729 107.077 14.8136 106.694 15.2022C106.311 15.5873 106.026 16.0825 105.848 16.6843C105.67 17.286 105.496 18.1732 105.328 19.3389C105.065 21.3918 105.034 22.7122 105.229 23.2933C105.427 23.8779 105.965 24.1702 106.848 24.1702C107.71 24.1702 108.552 23.9295 109.381 23.4481C110.199 22.9735 111.13 22.2342 112.16 21.2336Z" fill="#6841F2"/>
<path d="M121.302 12.4169L121.161 15.3844C123.636 13.1631 125.802 12.049 127.658 12.049C128.821 12.049 129.701 12.3825 130.3 13.053C130.899 13.7236 131.104 14.6795 130.919 15.9209L129.458 26.2058H126.757L128.079 16.5983C128.192 15.7317 128.157 15.1437 127.979 14.8308C127.801 14.5213 127.411 14.3632 126.812 14.3632C126.042 14.3632 125.241 14.6004 124.406 15.0681C123.571 15.5392 122.479 16.3129 121.13 17.3857L119.922 26.2024H117.194L119.135 12.4134H121.302V12.4169Z" fill="#6841F2"/>
<path d="M142.903 12.4169H145.689C144.902 14.8858 143.382 16.9284 141.133 18.548C141.414 18.9812 141.695 19.528 141.979 20.1882L144.652 26.2058H141.725L139.083 19.8478C138.238 20.3017 137.153 20.8278 135.821 21.4296L135.119 26.2058H132.419L135.174 6.42676H137.902L136.663 15.6939C136.495 16.8252 136.194 17.9531 135.763 19.0844C137.543 18.2351 139.086 17.2447 140.39 16.1031C141.688 14.9649 142.526 13.7373 142.903 12.4169Z" fill="#6841F2"/>
<path d="M13.4753 20.03H0V26.8007H13.4753V20.03Z" fill="#6841F2"/>
<path d="M20.1667 6.53687H6.69141V20.0748H20.1667V6.53687Z" fill="#6841F2"/>
<path d="M6.64729 0H0.0927734V6.49216H6.64729V0Z" fill="#6841F2"/>
<path d="M26.5812 0H20.1191V6.49216H26.5812V0Z" fill="#6841F2"/>
</svg>
